<?xml version="1.0" standalone="no"?>
<!DOCTYPE svg PUBLIC "-//W3C//DTD SVG 20010904//EN"
 "http://www.w3.org/TR/2001/REC-SVG-20010904/DTD/svg10.dtd">
<svg version="1.0" xmlns="http://www.w3.org/2000/svg"
 width="847.000000pt" height="847.000000pt" viewBox="0 0 847.000000 847.000000"
 preserveAspectRatio="xMidYMid meet">

<g transform="translate(0.000000,847.000000) scale(0.100000,-0.100000)"
fill="#000000" stroke="none">
<path d="M6500 8239 c-99 -9 -5458 -954 -5535 -975 -274 -77 -447 -326 -414
-596 5 -46 18 -130 29 -188 11 -58 28 -157 39 -220 23 -132 37 -213 96 -547
19 -106 41 -229 60 -340 9 -49 22 -124 30 -168 8 -44 21 -120 30 -170 17 -99
38 -216 60 -342 8 -46 22 -122 30 -170 9 -49 22 -125 30 -170 25 -142 45 -253
71 -403 14 -80 39 -219 55 -310 16 -91 43 -241 59 -335 16 -93 43 -244 59
-335 16 -91 41 -232 55 -315 47 -273 62 -318 136 -416 67 -90 164 -158 275
-196 139 -47 -18 -71 2975 457 1499 264 2752 487 2785 496 206 55 352 197 411
400 33 114 35 100 -207 1464 -57 323 -87 494 -119 675 -17 99 -44 252 -60 340
-16 88 -43 241 -60 340 -17 99 -44 252 -60 340 -16 88 -38 216 -50 285 -12 69
-26 148 -31 175 -5 28 -18 102 -29 165 -11 63 -25 140 -30 170 -10 57 -42 238
-61 350 -29 167 -54 235 -117 319 -69 91 -161 157 -277 198 -72 26 -135 32
-235 22z m120 -454 c33 -17 55 -53 64 -105 4 -19 144 -813 311 -1765 303
-1722 345 -1959 391 -2214 13 -74 24 -149 24 -167 0 -38 -36 -86 -77 -102 -55
-21 -5501 -975 -5528 -968 -38 10 -72 48 -83 92 -5 22 -24 122 -42 224 -17
102 -44 257 -60 345 -16 88 -43 241 -60 340 -17 99 -45 252 -60 340 -175 978
-510 2899 -510 2922 0 44 32 87 76 101 47 16 5445 970 5492 971 18 1 46 -6 62
-14z"/>
<path d="M5685 7194 c-241 -35 -405 -147 -517 -354 -61 -112 -73 -160 -72
-295 3 -220 69 -379 211 -502 79 -68 162 -116 256 -148 149 -49 347 -30 516
52 85 41 206 167 263 273 66 123 82 193 76 332 -11 252 -127 443 -342 563 -96
54 -170 75 -271 80 -49 2 -103 1 -120 -1z"/>
<path d="M2904 6017 c-114 -162 -356 -506 -454 -647 -164 -235 -357 -511 -405
-580 -29 -41 -89 -127 -134 -189 -66 -92 -81 -120 -76 -140 3 -15 63 -356 135
-760 71 -403 131 -736 134 -738 7 -8 4789 837 4800 847 8 8 -87 587 -105 636
-6 18 -1251 900 -1280 907 -6 1 -110 -140 -232 -313 -122 -173 -225 -315 -228
-315 -4 0 -1981 1379 -2045 1426 -6 5 -48 -45 -110 -134z"/>
<path d="M4311 1578 c-11 -24 -33 -73 -50 -110 l-30 -68 67 1 67 1 98 109 99
109 -116 0 -117 0 -18 -42z"/>
<path d="M1349 1553 c-39 -67 -125 -140 -216 -185 l-63 -31 0 -104 0 -103 38
15 c57 24 114 60 176 110 l56 46 0 -390 0 -391 105 0 105 0 0 545 0 545 -84 0
-83 0 -34 -57z"/>
<path d="M2300 1060 l0 -540 110 0 110 0 0 540 0 540 -110 0 -110 0 0 -540z"/>
<path d="M3067 1306 c-42 -15 -56 -25 -109 -75 l-38 -35 0 52 0 52 -105 0
-105 0 0 -390 0 -390 104 0 104 0 4 263 c3 241 5 265 23 296 28 47 62 70 116
77 38 5 49 3 73 -17 15 -14 31 -41 36 -64 5 -22 10 -156 10 -297 l0 -258 105
0 105 0 0 230 c0 133 5 251 11 282 26 120 159 170 223 84 20 -26 21 -43 24
-312 l3 -284 105 0 104 0 0 273 c0 308 -7 374 -47 431 -44 62 -110 91 -208 91
-89 0 -119 -12 -196 -75 l-45 -38 -28 35 c-57 71 -177 102 -269 69z"/>
<path d="M4265 1314 c-117 -30 -171 -71 -212 -161 -14 -30 -22 -57 -19 -60 4
-5 154 -32 178 -33 4 0 14 16 23 35 19 47 70 70 139 61 61 -7 86 -29 93 -83 6
-48 13 -45 -186 -93 -68 -17 -145 -42 -170 -55 -126 -69 -149 -244 -46 -351
95 -100 282 -96 391 8 34 32 35 32 53 -24 l13 -38 104 0 c104 0 105 0 93 21
-26 50 -32 97 -39 349 -7 283 -12 312 -61 357 -50 45 -116 65 -228 69 -58 2
-115 1 -126 -2z m205 -486 c0 -73 -25 -118 -80 -145 -72 -37 -138 -26 -166 28
-37 72 -8 103 127 140 57 15 107 28 112 28 4 1 7 -23 7 -51z"/>
<path d="M5080 1311 c-119 -39 -198 -129 -225 -258 -63 -297 87 -551 315 -530
71 6 112 26 173 85 l47 46 -1 -89 c-1 -151 -28 -192 -135 -202 -64 -6 -134 15
-134 39 -1 30 -21 39 -130 53 -63 8 -115 15 -117 15 -2 0 -3 -17 -3 -37 1 -86
74 -175 171 -209 82 -29 303 -26 380 4 101 40 150 109 169 238 5 38 10 241 10
452 l0 382 -105 0 -105 0 0 -52 0 -52 -42 41 c-24 22 -59 49 -78 58 -38 20
-151 29 -190 16z m214 -174 c27 -15 48 -38 65 -72 23 -43 26 -62 26 -145 0
-78 -4 -102 -22 -136 -71 -133 -218 -139 -286 -11 -18 36 -22 58 -22 147 0
110 15 160 62 202 47 42 119 49 177 15z"/>
<path d="M6003 1306 c-88 -28 -177 -108 -214 -192 -64 -151 -44 -370 45 -487
117 -154 412 -171 548 -30 32 34 93 132 85 139 -1 2 -34 8 -72 13 -39 6 -84
13 -102 16 -29 5 -33 2 -49 -30 -33 -70 -110 -93 -188 -56 -52 26 -82 68 -92
129 l-7 42 262 0 261 0 0 44 c0 74 -28 194 -57 247 -41 75 -112 135 -190 159
-74 23 -167 25 -230 6z m196 -173 c30 -22 71 -97 71 -130 0 -23 0 -23 -155
-23 -173 0 -168 -3 -141 73 17 47 42 75 81 94 39 17 110 11 144 -14z"/>
<path d="M7009 1307 c-55 -21 -106 -55 -134 -90 l-25 -32 0 58 0 57 -105 0
-105 0 0 -390 0 -390 105 0 105 0 0 230 c0 255 8 315 49 359 63 67 173 63 216
-9 19 -33 20 -54 23 -307 l3 -273 105 0 104 0 0 279 c0 306 -7 367 -48 425
-54 78 -197 118 -293 83z"/>
</g>
</svg>
