<?xml version="1.0" standalone="no"?>
<!DOCTYPE svg PUBLIC "-//W3C//DTD SVG 20010904//EN"
 "http://www.w3.org/TR/2001/REC-SVG-20010904/DTD/svg10.dtd">
<svg version="1.0" xmlns="http://www.w3.org/2000/svg"
 width="847.000000pt" height="847.000000pt" viewBox="0 0 847.000000 847.000000"
 preserveAspectRatio="xMidYMid meet">

<g transform="translate(0.000000,847.000000) scale(0.100000,-0.100000)"
fill="#000000" stroke="none">
<path d="M6500 8369 c-99 -9 -5458 -954 -5535 -975 -274 -77 -447 -326 -414
-596 5 -46 18 -130 29 -188 11 -58 28 -157 39 -220 23 -132 37 -213 96 -547
19 -106 41 -229 60 -340 9 -49 22 -124 30 -168 8 -44 21 -120 30 -170 17 -99
38 -216 60 -342 8 -46 22 -122 30 -170 9 -49 22 -125 30 -170 25 -142 45 -253
71 -403 14 -80 39 -219 55 -310 16 -91 43 -241 59 -335 16 -93 43 -244 59
-335 16 -91 41 -232 55 -315 47 -273 62 -318 136 -416 67 -90 164 -158 275
-196 139 -47 -18 -71 2975 457 1499 264 2752 487 2785 496 206 55 352 197 411
400 33 114 35 100 -207 1464 -57 323 -87 494 -119 675 -17 99 -44 252 -60 340
-16 88 -43 241 -60 340 -17 99 -44 252 -60 340 -16 88 -38 216 -50 285 -12 69
-26 148 -31 175 -5 28 -18 102 -29 165 -11 63 -25 140 -30 170 -10 57 -42 238
-61 350 -29 167 -54 235 -117 319 -69 91 -161 157 -277 198 -72 26 -135 32
-235 22z m120 -454 c33 -17 55 -53 64 -105 4 -19 144 -813 311 -1765 303
-1722 345 -1959 391 -2214 13 -74 24 -149 24 -167 0 -38 -36 -86 -77 -102 -55
-21 -5501 -975 -5528 -968 -38 10 -72 48 -83 92 -5 22 -24 122 -42 224 -17
102 -44 257 -60 345 -16 88 -43 241 -60 340 -17 99 -45 252 -60 340 -175 978
-510 2899 -510 2922 0 44 32 87 76 101 47 16 5445 970 5492 971 18 1 46 -6 62
-14z"/>
<path d="M5685 7324 c-241 -35 -405 -147 -517 -354 -61 -112 -73 -160 -72
-295 3 -220 69 -379 211 -502 79 -68 162 -116 256 -148 149 -49 347 -30 516
52 85 41 206 167 263 273 66 123 82 193 76 332 -11 252 -127 443 -342 563 -96
54 -170 75 -271 80 -49 2 -103 1 -120 -1z"/>
<path d="M2904 6147 c-114 -162 -356 -506 -454 -647 -164 -235 -357 -511 -405
-580 -29 -41 -89 -127 -134 -189 -66 -92 -81 -120 -76 -140 3 -15 63 -356 135
-760 71 -403 131 -736 134 -738 7 -8 4789 837 4800 847 8 8 -87 587 -105 636
-6 18 -1251 900 -1280 907 -6 1 -110 -140 -232 -313 -122 -173 -225 -315 -228
-315 -4 0 -1981 1379 -2045 1426 -6 5 -48 -45 -110 -134z"/>
<path d="M4319 1814 c-35 -76 -65 -141 -67 -145 -2 -5 34 -9 80 -9 l83 0 75
78 c41 42 104 107 140 145 l64 67 -155 0 -155 0 -65 -136z"/>
<path d="M405 1883 c-41 -98 -151 -200 -300 -279 l-85 -46 0 -123 0 -124 38
16 c86 36 161 78 228 129 39 30 74 54 78 54 3 0 6 -229 6 -510 l0 -510 135 0
135 0 0 715 0 715 -110 0 -110 0 -15 -37z"/>
<path d="M1680 1205 l0 -715 140 0 140 0 0 715 0 715 -140 0 -140 0 0 -715z"/>
<path d="M2687 1540 c-58 -15 -135 -57 -182 -101 -23 -21 -45 -39 -49 -39 -3
0 -6 29 -6 65 l0 65 -120 0 -120 0 0 -520 0 -520 135 0 135 0 0 233 c1 442 16
527 102 584 54 36 141 39 184 8 52 -39 55 -69 61 -462 l6 -363 133 0 134 0 0
233 c1 326 12 454 45 514 31 58 76 91 137 99 57 8 112 -16 134 -59 24 -46 33
-185 34 -499 l0 -288 135 0 135 0 0 390 c0 242 -4 408 -11 440 -24 112 -115
198 -234 220 -136 26 -245 -6 -349 -101 -41 -37 -61 -50 -64 -40 -10 31 -77
92 -127 117 -60 29 -181 41 -248 24z"/>
<path d="M4290 1544 c-138 -27 -219 -85 -275 -196 -40 -80 -42 -95 -17 -102
26 -7 224 -37 226 -34 42 100 75 123 175 123 112 0 139 -21 155 -122 6 -40 5
-41 -27 -52 -17 -7 -108 -30 -200 -51 -249 -58 -311 -93 -364 -208 -23 -48
-25 -64 -21 -140 5 -105 26 -151 94 -211 125 -110 347 -106 499 8 l54 41 17
-55 18 -55 139 0 c129 0 139 1 132 18 -54 128 -64 217 -65 559 0 226 -8 293
-43 345 -32 47 -100 95 -160 114 -52 15 -284 28 -337 18z m262 -667 c-10 -108
-22 -132 -83 -177 -69 -49 -169 -50 -214 0 -28 31 -43 88 -34 128 14 62 44 81
191 122 73 20 136 34 141 30 4 -4 4 -50 -1 -103z"/>
<path d="M5385 1537 c-142 -48 -235 -139 -286 -283 -30 -82 -38 -309 -15 -407
34 -146 120 -263 234 -319 61 -30 74 -33 162 -33 82 0 103 4 152 27 32 15 81
48 109 75 l52 48 -7 -125 c-11 -200 -41 -235 -201 -235 -104 0 -142 16 -152
65 -3 17 -11 30 -17 30 -6 1 -76 9 -156 20 -80 10 -149 15 -153 11 -4 -4 -3
-36 2 -71 11 -69 50 -136 103 -179 126 -102 457 -122 647 -41 60 26 134 101
161 164 37 86 40 146 40 703 l0 543 -125 0 -125 0 0 -70 c0 -38 -2 -70 -5 -70
-2 0 -23 20 -46 45 -63 68 -149 106 -251 111 -53 3 -98 -1 -123 -9z m288 -233
c81 -58 123 -196 105 -352 -10 -89 -25 -129 -67 -175 -43 -48 -101 -77 -156
-77 -84 0 -173 84 -195 182 -16 77 -14 233 5 296 43 143 195 205 308 126z"/>
<path d="M6625 1536 c-167 -40 -292 -171 -339 -352 -20 -79 -21 -267 -1 -352
43 -184 168 -310 342 -347 193 -41 376 5 483 122 47 51 108 158 97 169 -4 4
-241 43 -268 44 -4 0 -10 -11 -13 -24 -9 -36 -55 -87 -93 -102 -62 -26 -138
-13 -202 34 -40 30 -81 113 -81 165 l0 37 340 0 340 0 0 75 c0 221 -90 404
-238 483 -107 57 -251 76 -367 48z m235 -230 c45 -30 90 -113 90 -168 l0 -38
-201 0 -202 0 7 52 c4 28 13 63 21 79 18 33 90 96 119 103 48 10 128 -3 166
-28z"/>
<path d="M7940 1535 c-70 -20 -125 -53 -175 -104 -21 -23 -43 -41 -47 -41 -4
0 -8 32 -8 70 l0 70 -125 0 -125 0 0 -520 0 -520 135 0 135 0 0 218 c1 119 5
276 9 349 10 153 28 197 99 247 37 26 52 31 107 31 72 0 106 -18 139 -75 25
-42 35 -184 35 -517 l1 -253 136 0 135 0 -3 413 c-3 363 -6 417 -21 458 -43
111 -148 179 -291 185 -53 3 -100 -1 -136 -11z"/>
</g>
</svg>
