<?xml version="1.0" encoding="UTF-8"?>
<svg version="1.1" xmlns="http://www.w3.org/2000/svg" width="255" height="255">
<path d="M0 0 C4.33022555 4.00545863 7.25836513 7.44295334 8.5 13.3125 C8.59807511 19.37136263 7.46647867 23.57476159 3.5 28.3125 C-1.9642626 33.12625515 -5.26566697 33.67660307 -12.453125 33.58203125 C-17.62548572 33.12447626 -20.4478193 31.53744081 -24.03125 27.65234375 C-27.46855353 23.00243592 -28.27445671 18.7248862 -27.98046875 12.99609375 C-26.91579214 7.04948536 -24.03327474 3.56415285 -19.4375 -0.1875 C-13.36322757 -3.17135312 -5.97478475 -2.88069979 0 0 Z " fill="#6E5B47" transform="translate(102.5,110.6875)"/>
<path d="M0 0 C4.86680253 2.44416853 7.93556195 6.39268673 9.828125 11.38671875 C10.82852018 16.9742918 10.56983343 21.82136185 7.765625 26.82421875 C5.08446848 30.4512277 2.21615924 33.11482477 -2.171875 34.38671875 C-7.81508522 35.11487491 -12.49700579 35.19424497 -17.671875 32.69921875 C-22.00210055 28.69376012 -24.93024013 25.25626541 -26.171875 19.38671875 C-26.26995011 13.32785612 -25.13835367 9.12445716 -21.171875 4.38671875 C-14.87464243 -1.16084327 -8.24277941 -2.32754742 0 0 Z " fill="#6E5A47" transform="translate(31.171875,109.61328125)"/>
<path d="M0 0 C5.06432934 1.81566791 9.0127214 5.04325154 11.3671875 9.921875 C12.9958469 15.27031204 13.12136206 20.44237284 10.859375 25.6015625 C8.01070405 30.20441503 5.35847006 33.5115361 0 35 C-5.63667808 35.60559351 -10.33155307 35.80442977 -15.5 33.3125 C-20.53935192 28.65109947 -23.59269703 24.5978429 -24.375 17.6875 C-23.76021939 11.64215737 -21.53357907 7.02457583 -16.875 3.0625 C-11.44832139 -0.83055204 -6.56302966 -0.71551827 0 0 Z " fill="#6E5A46" transform="translate(237,109)"/>
<path d="M0 0 C5.09861763 2.41025561 9.59072737 6.63942681 11.8125 11.9375 C12.37566724 18.13233969 12.11043986 22.48147767 9 28 C4.35504007 32.78473881 0.99399267 35.15312704 -5.75 35.3125 C-11.05137515 35.25549597 -13.99604727 34.71098058 -18 31 C-22.78845802 25.98912726 -24.32890915 22.12075944 -24.20703125 15.2734375 C-23.73012761 10.03649567 -21.24239526 7.03263708 -17.4375 3.6875 C-11.96716927 -0.79464196 -6.9485492 -0.64658846 0 0 Z " fill="#6E5A46" transform="translate(168,109)"/>
</svg>
