<?xml version="1.0" encoding="UTF-8" standalone="no"?>
<!DOCTYPE svg PUBLIC "-//W3C//DTD SVG 1.1//EN" "http://www.w3.org/Graphics/SVG/1.1/DTD/svg11.dtd">
<svg width="100%" height="100%" viewBox="0 0 100 124" version="1.1" xmlns="http://www.w3.org/2000/svg" xmlns:xlink="http://www.w3.org/1999/xlink" xml:space="preserve" xmlns:serif="http://www.serif.com/" style="fill-rule:evenodd;clip-rule:evenodd;stroke-linejoin:round;stroke-miterlimit:2;">
    <g id="Main" transform="matrix(0.1,0,0,-0.1,-462,574)">
        <g id="Columns" transform="matrix(0.125142,0,-0,0.125142,4522.021252,4232.012818)">
            <g id="Columns1" serif:id="Columns" transform="matrix(1.005173,-0,-0,0.899188,-491.037783,2814.562743)">
                <g transform="matrix(11.015888,-0,-0,-14.337421,-517.152208,9109.416673)">
                    <rect x="372.989" y="128.344" width="28.243" height="401.356" style="fill-opacity:0;"/>
                </g>
                <g transform="matrix(11.015888,-0,-0,-14.337421,-517.152208,9109.416673)">
                    <rect x="545.424" y="211.588" width="38.649" height="148.65" style="fill-opacity:0;"/>
                </g>
                <g transform="matrix(11.015888,-0,-0,-14.337421,-517.152208,9109.416673)">
                    <rect x="372.989" y="329.022" width="99.596" height="107.028" style="fill-opacity:0;"/>
                </g>
                <g transform="matrix(15.464921,-0,-0,-277.491516,-4641.153159,65788.193548)">
                    <rect x="545.424" y="211.588" width="19.325" height="22.298"/>
                </g>
                <g transform="matrix(0,17.37517,354.640668,-0,-73770.436069,-2409.166863)">
                    <rect x="545.424" y="211.588" width="19.325" height="22.298"/>
                </g>
                <g transform="matrix(0,17.37517,354.640668,-0,-73770.436069,-3953.181134)">
                    <rect x="545.424" y="211.588" width="19.325" height="22.298"/>
                </g>
                <g transform="matrix(0,17.37517,354.640668,-0,-73770.436069,-5474.889466)">
                    <rect x="545.424" y="211.588" width="19.325" height="22.298"/>
                </g>
                <g transform="matrix(0,17.37517,354.640668,-0,-73770.436069,-1176.875014)">
                    <rect x="545.424" y="211.588" width="19.325" height="22.298"/>
                </g>
                <g transform="matrix(0,17.37517,354.640668,-0,-73770.436069,-8590.016624)">
                    <rect x="545.424" y="211.588" width="19.325" height="22.298"/>
                </g>
                <g transform="matrix(-15.468186,0,0,332.464124,10003.055829,-69458.741264)">
                    <rect x="545.424" y="211.588" width="19.325" height="22.298"/>
                </g>
                <g transform="matrix(-15.468186,0,0,324.953076,17611.764748,-67701.606775)">
                    <rect x="545.424" y="211.588" width="19.325" height="22.298"/>
                </g>
                <g transform="matrix(0,17.37517,354.640668,-0,-73770.436069,-7036.071586)">
                    <rect x="545.424" y="211.588" width="19.325" height="22.298"/>
                </g>
                <g transform="matrix(15.464921,-0,-0,-280.476374,-2088.395363,66654.193676)">
                    <rect x="545.424" y="211.588" width="19.325" height="22.298"/>
                </g>
            </g>
        </g>
    </g>
</svg>
