<?xml version="1.0" encoding="UTF-8" standalone="no"?>
<!DOCTYPE svg PUBLIC "-//W3C//DTD SVG 1.1//EN" "http://www.w3.org/Graphics/SVG/1.1/DTD/svg11.dtd">
<svg width="100%" height="100%" viewBox="0 0 1024 1024" version="1.1" xmlns="http://www.w3.org/2000/svg" xmlns:xlink="http://www.w3.org/1999/xlink" xml:space="preserve" xmlns:serif="http://www.serif.com/" style="fill-rule:evenodd;clip-rule:evenodd;stroke-linejoin:round;stroke-miterlimit:2;">
    <g transform="matrix(0.1,0,0,-0.1,0,1024)">
        <g transform="matrix(0.977298,0.211869,-0.211869,0.977298,1592.097347,-1089.514555)">
            <g transform="matrix(1.080194,0,0,1.068273,-453.802852,-725.629666)">
                <path d="M2335,9863C2268,9855 2172,9825 2120,9796C2090,9780 2032,9734 1992,9694C1910,9613 1856,9512 1839,9412C1827,9336 1827,5064 1839,4988C1856,4888 1910,4787 1992,4706C2075,4624 2145,4582 2245,4554C2313,4535 2381,4535 5160,4535C7939,4535 8007,4535 8075,4554C8175,4582 8245,4624 8328,4706C8410,4787 8464,4888 8481,4988C8493,5064 8493,9336 8481,9412C8464,9512 8410,9613 8328,9694C8247,9774 8187,9812 8090,9843L8025,9864L5195,9866C3638,9867 2352,9865 2335,9863ZM7984,9406C8004,9398 8023,9379 8033,9357C8049,9325 8050,9163 8050,7200C8050,5237 8049,5075 8033,5043C8001,4975 8232,4980 5160,4980C2088,4980 2319,4975 2287,5043C2271,5075 2270,5237 2270,7200C2270,9162 2271,9325 2287,9357C2297,9378 2316,9398 2334,9406C2381,9426 7935,9427 7984,9406Z" style="fill-rule:nonzero;"/>
            </g>
            <g transform="matrix(1.080194,0,0,1.068273,-453.802852,-725.629666)">
                <path d="M3300,8969C3224,8963 3124,8932 3060,8896C2946,8831 2819,8690 2771,8574C2706,8420 2707,8199 2771,8045C2824,7920 2962,7775 3088,7711C3208,7651 3389,7631 3537,7663C3756,7710 3945,7885 4020,8110C4052,8204 4052,8416 4020,8510C3983,8621 3940,8690 3855,8775C3698,8933 3538,8988 3300,8969Z" style="fill-rule:nonzero;"/>
            </g>
            <g transform="matrix(1.080194,0,0,1.068273,-453.802852,-725.629666)">
                <path d="M5268,7533L4380,6645L3825,7200L2720,6095L2720,5420L7600,5420L7600,6981L6881,7701C6486,8096 6160,8420 6159,8420C6157,8420 5756,8021 5268,7533Z" style="fill-rule:nonzero;"/>
            </g>
        </g>
        <g transform="matrix(10.745809,0,0,-12.888415,-1761.95914,11145.410585)">
            <g transform="matrix(350,0,0,350,1130.966542,862.237659)">
            </g>
            <text x="138.388px" y="862.238px" style="font-family:'Ebrima-Bold', 'Ebrima';font-weight:700;font-size:350px;">1 IMG</text>
        </g>
    </g>
</svg>
