<?xml version="1.0" encoding="UTF-8" standalone="no"?>
<!DOCTYPE svg PUBLIC "-//W3C//DTD SVG 1.1//EN" "http://www.w3.org/Graphics/SVG/1.1/DTD/svg11.dtd">
<svg width="100%" height="100%" viewBox="0 0 100 124" version="1.1" xmlns="http://www.w3.org/2000/svg" xmlns:xlink="http://www.w3.org/1999/xlink" xml:space="preserve" xmlns:serif="http://www.serif.com/" style="fill-rule:evenodd;clip-rule:evenodd;stroke-linecap:round;stroke-linejoin:round;stroke-miterlimit:1.5;">
    <g id="Main" transform="matrix(0.1,0,0,-0.1,-462,574)">
        <g id="Secciones--Digitalización" serif:id="Secciones, Digitalización" transform="matrix(0.125142,-0,0,0.125142,4522.021252,4301.345318)">
            <g transform="matrix(0,15.623538,345.403988,-0,-72053.677422,-4909.474052)">
                <rect x="545.424" y="211.588" width="19.325" height="22.298"/>
            </g>
            <g transform="matrix(15.544927,-0,0,-252.20089,-47.498948,62749.190002)">
                <rect x="545.424" y="211.588" width="19.325" height="22.298"/>
            </g>
            <g transform="matrix(15.544927,-0,0,-262.916618,-7629.139986,65104.489856)">
                <rect x="545.424" y="211.588" width="19.325" height="22.298"/>
            </g>
            <g transform="matrix(0,15.623538,349.989108,-0,-73126.072667,651.009457)">
                <rect x="545.424" y="211.588" width="19.325" height="22.298"/>
            </g>
            <g transform="matrix(-0,19.998883,155.828398,-0,-29965.400383,-5507.772228)">
                <rect x="545.424" y="211.588" width="19.325" height="22.298"/>
            </g>
            <g transform="matrix(147.993659,0,0,-147.993659,-6202.378453,17931.013866)">
                <path d="M85.7,84.495L85.7,77.389L68.758,77.389L79.1,77.389L79.064,84.495" style="fill:none;stroke:black;stroke-width:0.81px;"/>
            </g>
            <g transform="matrix(147.993659,0,0,-147.993659,-6202.378453,17931.013866)">
                <path d="M62.281,77.389L76.414,63.354L76.649,70.656L62.222,84.495L62.281,77.389Z" style="stroke:black;stroke-width:0.54px;"/>
            </g>
            <g transform="matrix(157.964685,0,0,-177.875923,-6943.503424,20414.012634)">
                <path d="M85.424,88.44L62.966,88.381L62.988,84.259L85.382,84.264" style="fill:rgb(2,0,0);"/>
            </g>
            <g transform="matrix(246.416886,0,0,-249.878463,-5166.613174,19361.334993)">
                <circle cx="45.244" cy="56.629" r="1.078" style="fill:white;"/>
            </g>
        </g>
    </g>
</svg>
