<?xml version="1.0" encoding="UTF-8" standalone="no"?>
<!DOCTYPE svg PUBLIC "-//W3C//DTD SVG 1.1//EN" "http://www.w3.org/Graphics/SVG/1.1/DTD/svg11.dtd">
<svg width="100%" height="100%" viewBox="0 0 100 124" version="1.1" xmlns="http://www.w3.org/2000/svg" xmlns:xlink="http://www.w3.org/1999/xlink" xml:space="preserve" xmlns:serif="http://www.serif.com/" style="fill-rule:evenodd;clip-rule:evenodd;stroke-linejoin:round;stroke-miterlimit:2;">
    <g id="Main" transform="matrix(0.1,0,0,-0.1,-462,574)">
        <g id="TouTube--Libros" serif:id="TouTube, Libros" transform="matrix(0.125142,-0,0,0.125142,4522.021252,4301.345318)">
            <g transform="matrix(11.072878,-0,0,-12.892032,-903.161534,10646.626017)">
                <rect x="372.989" y="128.344" width="28.243" height="401.356" style="fill-opacity:0;"/>
            </g>
            <g transform="matrix(11.072878,-0,0,-12.892032,-903.161534,10646.626017)">
                <rect x="545.424" y="211.588" width="38.649" height="148.65" style="fill-opacity:0;"/>
            </g>
            <g transform="matrix(11.072878,-0,0,-12.892032,-903.161534,10646.626017)">
                <rect x="372.989" y="329.022" width="99.596" height="107.028" style="fill-opacity:0;"/>
            </g>
            <g transform="matrix(0,15.623538,356.475371,-0,-74643.118782,648.269672)">
                <rect x="545.424" y="211.588" width="19.325" height="22.298"/>
            </g>
            <g transform="matrix(0,15.623538,356.475371,-0,-74643.118782,-4909.474052)">
                <rect x="545.424" y="211.588" width="19.325" height="22.298"/>
            </g>
            <g transform="matrix(0,23.994241,181.181747,-0,-35275.941159,-6076.990178)">
                <rect x="545.424" y="211.588" width="19.325" height="22.298"/>
            </g>
            <g transform="matrix(15.544927,-0,0,-252.20089,-47.498948,62749.190002)">
                <rect x="545.424" y="211.588" width="19.325" height="22.298"/>
            </g>
            <g transform="matrix(15.544927,-0,0,-243.828394,-7695.634279,60941.939488)">
                <rect x="545.424" y="211.588" width="19.325" height="22.298"/>
            </g>
            <g transform="matrix(54.961992,0,0,-54.961992,-385.697712,11356.107053)">
                <circle cx="46.28" cy="74.856" r="8.635"/>
            </g>
            <g transform="matrix(11.072878,-0,0,-12.892032,-903.160849,9228.529584)">
                <rect x="372.989" y="128.344" width="28.243" height="401.356" style="fill-opacity:0;"/>
            </g>
            <g transform="matrix(11.072878,-0,0,-12.892032,-903.160849,9228.529584)">
                <rect x="545.424" y="211.588" width="38.649" height="148.65" style="fill-opacity:0;"/>
            </g>
            <g transform="matrix(11.072878,-0,0,-12.892032,-903.160849,9228.529584)">
                <rect x="372.989" y="329.022" width="99.596" height="107.028" style="fill-opacity:0;"/>
            </g>
            <g transform="matrix(0,23.994241,181.181747,-0,-35275.941159,-7603.91733)">
                <rect x="545.424" y="211.588" width="19.325" height="22.298"/>
            </g>
            <g transform="matrix(54.961992,0,0,-54.961992,-385.697712,9829.179901)">
                <circle cx="46.28" cy="74.856" r="8.635"/>
            </g>
        </g>
    </g>
</svg>
