<?xml version="1.0" encoding="UTF-8" standalone="no"?>
<!DOCTYPE svg PUBLIC "-//W3C//DTD SVG 1.1//EN" "http://www.w3.org/Graphics/SVG/1.1/DTD/svg11.dtd">
<svg width="100%" height="100%" viewBox="0 0 1024 1024" version="1.1" xmlns="http://www.w3.org/2000/svg" xmlns:xlink="http://www.w3.org/1999/xlink" xml:space="preserve" xmlns:serif="http://www.serif.com/" style="fill-rule:evenodd;clip-rule:evenodd;stroke-linejoin:round;stroke-miterlimit:2;">
    <g id="Main" transform="matrix(0.1,0,0,-0.1,0,1024)">
        <g id="Encabezado" transform="matrix(1.420777,0,-0,1.420777,-2137.60812,-3703.834915)">
            <g transform="matrix(1.078636,0,0,1.351127,-445.761692,-3520.451241)">
                <path d="M2335,9863C2268,9855 2172,9825 2120,9796C2090,9780 2032,9734 1992,9694C1910,9613 1856,9512 1839,9412C1827,9336 1827,5064 1839,4988C1856,4888 1910,4787 1992,4706C2075,4624 2145,4582 2245,4554C2313,4535 5160,4535 5160,4535C5160,4535 8007,4535 8075,4554C8175,4582 8245,4624 8328,4706C8410,4787 8464,4888 8481,4988C8493,5064 8493,9336 8481,9412C8481,9412 8025,9864 8025,9864L5195,9866C3638,9867 2352,9865 2335,9863ZM7984,9406C8004,9398 8023,9379 8033,9357C8049,9325 8050,9163 8050,7200C8050,5237 8049,5075 8033,5043C8001,4975 8232,4980 5160,4980C2088,4980 2319,4975 2287,5043C2271,5075 2270,5237 2270,7200C2270,9162 2271,9325 2287,9357C2297,9378 2316,9398 2334,9406C2381,9426 7935,9427 7984,9406Z" style="fill-rule:nonzero;"/>
            </g>
            <g transform="matrix(0,32.996344,189.687862,-0,-37626.088331,-9979.477226)">
                <rect x="545.424" y="211.588" width="19.325" height="22.298"/>
            </g>
            <g transform="matrix(15.111958,-0,-0,-52.636648,-969.131049,20548.238704)">
                <rect x="545.424" y="211.588" width="19.325" height="22.298"/>
            </g>
            <g transform="matrix(0,15.111958,52.636648,-0,-3864.01313,-5.158544)">
                <rect x="545.424" y="211.588" width="19.325" height="22.298"/>
            </g>
        </g>
    </g>
</svg>
