<?xml version="1.0" encoding="UTF-8" standalone="no"?>
<!DOCTYPE svg PUBLIC "-//W3C//DTD SVG 1.1//EN" "http://www.w3.org/Graphics/SVG/1.1/DTD/svg11.dtd">
<svg width="100%" height="100%" viewBox="0 0 100 124" version="1.1" xmlns="http://www.w3.org/2000/svg" xmlns:xlink="http://www.w3.org/1999/xlink" xml:space="preserve" xmlns:serif="http://www.serif.com/" style="fill-rule:evenodd;clip-rule:evenodd;stroke-linejoin:round;stroke-miterlimit:2;">
    <g id="Main" transform="matrix(0.1,0,0,-0.1,-462,574)">
        <g id="Secciones--Actualización" serif:id="Secciones, Actualización" transform="matrix(0.125142,-0,0,0.125142,4522.021252,4301.345318)">
            <g transform="matrix(0,15.623538,345.403988,-0,-72053.677422,-4909.474052)">
                <rect x="545.424" y="211.588" width="19.325" height="22.298"/>
            </g>
            <g transform="matrix(15.544927,-0,0,-252.20089,-47.498948,62749.190002)">
                <rect x="545.424" y="211.588" width="19.325" height="22.298"/>
            </g>
            <g transform="matrix(15.544927,-0,0,-262.916618,-7629.139986,65104.489856)">
                <rect x="545.424" y="211.588" width="19.325" height="22.298"/>
            </g>
            <g transform="matrix(0,15.623538,349.989108,-0,-73126.072667,651.009457)">
                <rect x="545.424" y="211.588" width="19.325" height="22.298"/>
            </g>
            <g transform="matrix(-0,19.998883,163.448481,-0,-31627.653942,-5507.772228)">
                <rect x="545.424" y="211.588" width="19.325" height="22.298"/>
            </g>
            <g transform="matrix(19.998883,-0,-0,-34.239489,-7951.717253,13417.714431)">
                <rect x="545.424" y="211.588" width="19.325" height="22.298"/>
            </g>
            <g transform="matrix(19.998883,-0,-0,-34.239489,-4693.682914,13417.714431)">
                <rect x="545.424" y="211.588" width="19.325" height="22.298"/>
            </g>
            <g transform="matrix(10.453536,-10.453536,-27.72891,-27.72891,5415.064765,18180.328033)">
                <rect x="545.424" y="211.588" width="19.325" height="22.298"/>
            </g>
            <g transform="matrix(10.453536,10.453536,27.72891,-27.72891,-7347.603404,6575.101709)">
                <rect x="545.424" y="211.588" width="19.325" height="22.298"/>
            </g>
            <g transform="matrix(19.998883,-0,-0,-67.74212,-6302.186181,22016.967614)">
                <rect x="545.424" y="211.588" width="19.325" height="22.298"/>
            </g>
        </g>
    </g>
</svg>
