<?xml version="1.0" encoding="UTF-8" standalone="no"?>
<!DOCTYPE svg PUBLIC "-//W3C//DTD SVG 1.1//EN" "http://www.w3.org/Graphics/SVG/1.1/DTD/svg11.dtd">
<svg width="100%" height="100%" viewBox="0 0 1024 1024" version="1.1" xmlns="http://www.w3.org/2000/svg" xmlns:xlink="http://www.w3.org/1999/xlink" xml:space="preserve" xmlns:serif="http://www.serif.com/" style="fill-rule:evenodd;clip-rule:evenodd;stroke-linejoin:round;stroke-miterlimit:2;">
    <g transform="matrix(0.999023,0,0,0.999023,0.000977,31.542794)">
        <path d="M1025,753C1025,766.023 1025,779.047 1024.66,792.608C1021.053,799.615 1015.505,801.084 1008.705,801.08C863.748,800.982 718.79,800.976 573.833,801.121C570.234,801.124 566.146,802.263 563.124,804.188C550.379,812.306 537.925,820.883 525.421,829.376C517.794,834.556 508.384,834.634 500.706,829.453C488.048,820.909 475.474,812.23 462.612,804.004C459.731,802.161 455.811,801.143 452.36,801.119C421.204,800.907 390.045,800.889 358.889,801.117C353.947,801.153 352.447,799.604 352.93,794.912C353.269,791.619 352.946,788.257 352.972,784.466C353.026,779.082 353.026,774.159 353.026,768.981L356.654,768.981C390.789,768.983 424.93,769.358 459.054,768.746C468.434,768.578 475.344,772.089 482.29,777.235C486.915,780.661 491.848,783.672 497.042,787.136C497.042,779.868 497.312,773.204 496.945,766.575C496.708,762.285 496.306,757.715 494.631,753.854C491.116,745.752 486.712,738.105 479.61,732.316C471.512,725.716 462.201,721.361 452.028,721.187C420.566,720.649 389.09,721.003 357.619,720.994C356.179,720.993 354.739,720.825 352.825,720.705C352.825,715.556 352.825,710.761 352.904,705.507C352.983,699.796 352.983,694.545 352.983,689.385C354.181,689.172 354.658,689.013 355.136,689.013C386.557,689.025 417.988,688.645 449.396,689.322C458.641,689.521 468.072,691.935 476.953,694.783C484.031,697.053 490.401,701.527 497.455,704.879C498.217,702.551 498.953,700.365 498.953,698.18C499.005,495.505 499.001,292.83 499,90.155C499,87.657 499.19,85.138 498.921,82.67C498.783,81.406 497.822,80.233 497.124,78.657C492.677,65.427 485.593,54.306 475.569,45.144C468.332,38.529 460.316,33.014 450.072,33.008C312.573,32.93 175.075,32.957 37.576,32.969C36.131,32.969 34.685,33.125 32.762,33.236L32.762,513.302C26.966,513.302 21.664,513.302 16.003,513.263C15.405,513.245 15.165,513.265 14.475,513.19C9.683,513.063 5.341,513.031 1,513C1,345.31 1,177.62 1.347,9.403C4.129,6.251 6.565,3.626 9,1C160.69,1 312.38,1 464.589,1.373C465.432,2.091 465.7,2.647 466.088,2.748C474.919,5.048 483.203,8.404 490.063,15.181C491.182,15.96 492.146,16.431 493.099,16.933C493.088,16.965 493.026,16.94 493.194,17.197C493.734,17.619 494.107,17.783 494.744,18.116C499.021,22.398 503.033,26.51 507.197,30.935C507.739,31.489 508.13,31.728 508.657,31.978C508.982,32.074 509.072,32.221 509.065,32.799C509.715,34.112 510.363,35.055 511.299,36.2C512.607,36.066 513.856,35.987 514.596,35.333C515.764,34.302 516.461,32.75 517.584,31.65C525.809,23.599 533.169,14.522 543.77,9.254C546.734,7.782 549.734,6.382 552.719,4.954C555.478,3.633 558.24,2.318 561,1C712.69,1 864.38,1 1016.577,1.352C1019.723,4.136 1022.362,6.568 1025,9C1025,243.357 1025,477.713 1024.66,712.606C1021.063,719.453 1015.62,721.543 1008.425,721.089C981.744,721.041 955.523,721.041 928.821,721.041C928.821,715.551 928.821,710.758 928.9,705.506C928.978,699.788 928.978,694.531 928.978,689.036C931.028,689.036 932.339,689.035 933.651,689.036C951.968,689.041 970.285,689.096 988.602,688.964C990.169,688.952 991.728,687.695 993.503,687.2C993.977,687.574 994.229,687.784 994.511,687.943C994.562,687.971 994.829,687.79 994.834,687.698C994.904,686.213 994.991,684.727 994.991,683.242C994.999,468.634 994.999,254.026 994.999,39.418C994.999,38.085 995.229,36.683 994.885,35.443C994.631,34.525 993.617,33.819 992.477,33.001C853.864,32.984 715.716,32.981 577.567,33.013C575.427,33.013 573.243,33.238 571.153,33.696C556.042,37.004 546.62,47.764 538.157,59.501C531.272,69.051 528.745,79.658 528.761,91.733C529.038,295.206 528.945,498.68 528.941,702.153C528.941,703.058 529.033,703.962 529.119,705.557C544.731,693.94 561.636,688.962 580.327,688.983C684.313,689.104 788.3,689.043 892.286,689.055C893.732,689.055 895.178,689.195 897.179,689.298C897.179,695.052 897.179,700.509 897.101,706.429C897.024,711.492 897.024,716.092 897.024,720.999L890.971,720.999C792.321,721 693.67,720.938 595.019,721.104C585.369,721.12 575.477,719.124 566.054,722.917C560.182,725.28 553.778,726.978 548.702,730.529C537.601,738.297 531.52,749.938 529.215,762.957C527.858,770.623 528.967,778.726 528.967,787.182C534.691,783.292 539.672,779.576 544.973,776.394C550.482,773.087 555.209,768.803 562.69,768.816C704.5,769.059 846.31,769.012 988.121,769.026L993.2,769.026L993.2,752.867C998.647,752.867 1003.767,752.867 1009.357,752.922C1014.886,752.984 1019.943,752.992 1025,753Z" style="fill:rgb(44,45,45);fill-rule:nonzero;"/>
    </g>
    <g transform="matrix(0.999023,0,0,0.999023,0.000977,31.542794)">
        <path d="M201.125,960.529C174.688,960.946 148.282,960.965 121.376,960.565C115.366,958.928 109.708,958.161 104.376,956.404C89.411,951.475 75.069,945.219 62.044,936.088C45.838,924.726 31.754,910.88 21.742,894.197C12.458,878.727 4.2,862.074 2.939,843.243C2.886,842.456 1.673,841.746 1,841C1,771.979 1,702.958 1.405,633.419C2.204,631.75 2.708,630.623 2.974,629.443C4.085,624.523 4.627,619.411 6.297,614.695C9.256,606.338 12.884,598.218 16.527,589.992C17.524,589.352 18.479,588.85 18.894,588.063C26.998,572.71 37.944,559.656 51.049,548.378C71.935,530.405 95.779,518.743 123.246,515.004C130.435,514.025 137.659,513.309 145.036,512.453C145.036,502.908 145.028,493.429 145.038,483.951C145.062,462.547 158.537,449.048 179.919,449.04C208.91,449.03 237.901,449.046 266.892,449.05C268.838,449.051 270.785,449.05 273.193,449.05L273.193,401.398L304.955,401.398C304.955,416.445 304.998,431.097 304.945,445.748C304.866,467.718 291.693,480.942 269.841,480.967C240.517,481 211.192,480.967 181.868,480.962L177.255,480.962L177.255,512.481C184.385,513.322 191.158,513.997 197.894,514.935C231.473,519.61 259.435,534.832 282.422,559.663C308.277,587.593 320.672,620.667 320.964,658.501C321.086,674.322 321.111,690.144 321.103,706.431C321.036,732.912 321.047,758.929 321.058,784.945C321.036,797.928 320.806,810.915 321.034,823.895C321.5,850.474 312.49,874.094 298.542,896.082C288.176,912.423 274.679,925.879 258.694,936.811C244.782,946.325 229.806,953.455 213.282,957.148C209.221,958.056 205.197,959.132 201.125,960.529M273.012,599.518C269.194,594.294 265.657,588.833 261.505,583.889C247.651,567.393 230.164,556.139 209.613,550.01C184.085,542.397 157.819,543.761 131.866,546.182C102.256,548.943 77.758,562.824 58.8,585.795C42.276,605.818 33.195,628.945 33.074,655.019C32.823,708.998 32.968,762.978 33.039,816.958C33.045,822.089 33.399,827.257 34.071,832.345C37.299,856.784 47.966,877.812 65.039,895.267C85.14,915.819 110.063,926.676 138.712,928.939C144.793,929.419 145.015,929.163 145.015,922.749C145.018,889.929 145.011,857.108 145.016,824.287C145.017,817 145.032,817.003 152.044,817.009C158.542,817.016 165.056,817.296 171.531,816.923C176.068,816.661 177.095,818.296 177.073,822.612C176.906,855.932 176.98,889.253 176.987,922.573C176.989,929.086 177.121,929.828 183.614,928.795C194.557,927.053 205.71,925.336 216.096,921.681C234.756,915.116 250.553,903.85 263.165,888.359C279.119,868.762 288.543,846.391 288.811,821.159C289.378,767.685 288.876,714.201 289.07,660.722C289.148,639.071 284.065,618.92 273.012,599.518Z" style="fill:rgb(45,45,45);fill-rule:nonzero;"/>
    </g>
    <g transform="matrix(0.999023,0,0,0.999023,0.000977,31.542794)">
        <path d="M1025,8.505C1022.362,6.568 1019.723,4.136 1017.042,1.352C1019.582,1 1022.165,1 1025,1L1025,8.505Z" style="fill:rgb(128,128,128);fill-rule:nonzero;"/>
    </g>
    <g transform="matrix(0.999023,0,0,0.999023,0.000977,31.542794)">
        <path d="M897.179,705.966L897.179,689.298C895.178,689.195 893.732,689.055 892.286,689.055C788.3,689.043 684.313,689.104 580.327,688.983C561.636,688.962 544.731,693.94 529.119,705.557C529.033,703.962 528.941,703.058 528.941,702.153C528.945,498.68 529.038,295.206 528.761,91.733C528.745,79.658 531.272,69.051 538.157,59.501C546.62,47.764 556.042,37.004 571.153,33.696C573.243,33.238 575.427,33.013 577.567,33.013C715.716,32.981 853.864,32.984 992.553,33.463C993.086,35.941 993.073,37.939 993.073,39.938C993.075,251.307 993.077,462.676 993.09,674.045C993.09,678.369 993.221,682.693 993.291,687.017C991.728,687.695 990.169,688.952 988.602,688.964C970.285,689.096 951.968,689.041 933.651,689.036C932.339,689.035 931.028,689.036 928.978,689.036C928.978,694.531 928.978,699.788 928.499,705.442C917.739,705.881 907.459,705.923 897.179,705.966M891.5,401.046L721.404,401.046L721.404,432.567L928.686,432.567L928.686,401.046L891.5,401.046M877.5,113.046L721.407,113.046L721.407,144.74L928.682,144.74L928.682,113.046L877.5,113.046M780.5,305.046L721.252,305.046L721.252,336.714L928.657,336.714L928.657,305.046L780.5,305.046M849.5,593.046L721.234,593.046L721.234,624.727L928.675,624.727L928.675,593.046L849.5,593.046M785.008,498.792C783.37,498.21 781.733,497.122 780.095,497.12C718.805,497.023 657.515,497.026 596.225,497.028C595.28,497.028 594.335,497.184 593.37,497.269L593.37,528.595L784.969,528.595C784.969,518.709 784.969,509.228 785.008,498.792M705.5,240.985L784.757,240.985L784.757,209.272L593.341,209.272L593.341,240.985L705.5,240.985M881.5,528.985L928.76,528.985L928.76,497.273L817.338,497.273L817.338,528.985L881.5,528.985M895.5,240.985L928.754,240.985L928.754,209.281L817.344,209.281L817.344,240.985L895.5,240.985M665.5,593.046L593.405,593.046L593.405,624.735L688.684,624.735L688.684,593.046L665.5,593.046M688.962,423.453L688.962,401.412L593.296,401.412L593.296,432.664L688.959,432.664C688.959,429.707 688.959,427.072 688.962,423.453M680.44,336.982L688.765,336.982L688.765,305.271L593.335,305.271L593.335,336.981C622.254,336.981 650.854,336.981 680.44,336.982M595.749,113.006C594.837,113.658 593.143,114.297 593.132,114.965C592.962,124.873 593.015,134.784 593.015,144.605L688.737,144.605L688.737,113.03C657.882,113.03 627.296,113.03 595.749,113.006Z" style="fill:rgb(251,252,252);fill-rule:nonzero;"/>
    </g>
    <g transform="matrix(0.999023,0,0,0.999023,0.000977,31.542794)">
        <path d="M16.527,589.992C16.233,589.998 16.534,589.797 16.534,589.797C16.534,589.797 16.467,589.44 16.492,588.892C16.636,566.134 16.774,543.923 16.848,521.713C16.858,518.91 16.532,516.105 16.361,513.302L32.762,513.302L32.762,33.236C34.685,33.125 36.131,32.969 37.576,32.969C175.075,32.957 312.573,32.93 450.072,33.008C460.316,33.014 468.332,38.529 475.569,45.144C485.593,54.306 492.677,65.427 497.061,79.121C497.099,196.201 497.086,312.456 497.081,428.711C497.078,520.815 497.084,612.918 497.085,705.022C490.401,701.527 484.031,697.053 476.953,694.783C468.072,691.935 458.641,689.521 449.396,689.322C417.988,688.645 386.557,689.025 355.136,689.013C354.658,689.013 354.181,689.172 352.983,689.385C352.983,694.545 352.983,699.796 352.503,705.443C341.742,705.882 331.461,705.924 321.18,705.966C321.111,690.144 321.086,674.322 320.964,658.501C320.672,620.667 308.277,587.593 282.422,559.663C259.435,534.832 231.473,519.61 197.894,514.935C191.158,513.997 184.385,513.322 177.255,512.481L177.255,480.962L181.868,480.962C211.192,480.967 240.517,481 269.841,480.967C291.693,480.942 304.866,467.718 304.945,445.748C304.998,431.097 304.955,416.445 304.955,401.398L273.193,401.398L273.193,449.05C270.785,449.05 268.838,449.051 266.892,449.05C237.901,449.046 208.91,449.03 179.919,449.04C158.537,449.048 145.062,462.547 145.038,483.951C145.028,493.429 145.036,502.908 145.036,512.453C137.659,513.309 130.435,514.025 123.246,515.004C95.779,518.743 71.935,530.405 51.049,548.378C37.944,559.656 26.998,572.71 18.894,588.063C18.479,588.85 17.524,589.352 16.527,589.992M247.925,206.091C247.925,206.091 247.786,206.103 248.005,206.611C248.313,206.805 248.621,206.998 248.938,207.066C248.938,207.066 248.812,207.073 249.025,207.598C249.327,207.812 249.628,208.026 250.177,208.828C252.631,210.791 251.547,212.158 249.71,213.974C235.983,227.547 222.355,241.223 208.723,254.893C200.081,263.557 200.048,272.291 208.7,280.963C229.976,302.288 251.283,323.583 272.61,344.858C281.9,354.126 290.435,354.066 299.802,344.708C313.224,331.299 326.605,317.848 340.021,304.431C340.908,303.544 341.936,302.798 342.953,301.94C345.104,303.82 346.956,305.441 349.028,307.585C349.329,307.801 349.631,308.018 350.032,308.669C350.212,308.945 350.466,309.077 351.017,309.589C351.322,309.804 351.627,310.019 352.031,310.67C352.214,310.943 352.47,311.075 353.025,311.587C353.327,311.804 353.629,312.021 354.029,312.674C354.211,312.947 354.466,313.078 355.02,313.588C355.324,313.803 355.628,314.017 356.19,314.836C359.609,318.234 362.976,321.685 366.459,325.015C370.543,328.919 375.803,330.595 380.725,328.291C390.864,323.543 399.826,316.359 402.899,305.394C407.189,290.088 409.66,274.269 412.811,258.65C417.175,237.015 421.476,215.367 425.751,193.714C429.705,173.682 433.743,153.664 437.436,133.583C439.184,124.078 429.851,114.88 420.273,116.548C407.192,118.825 394.167,121.441 381.144,124.046C359.825,128.311 338.537,132.733 317.217,136.996C295.398,141.358 273.538,145.515 251.745,150.001C248.274,150.715 244.566,152.06 241.842,154.217C237.302,157.811 233.254,162.107 229.386,166.452C223.064,173.552 223.456,181.972 230.09,188.707C231.59,190.23 233.234,191.613 235.03,193.581C235.333,193.795 235.635,194.008 236.038,194.661C236.222,194.937 236.48,195.069 237.031,195.581C237.332,195.795 237.634,196.009 238.037,196.662C238.221,196.937 238.477,197.07 239.03,197.582C239.332,197.796 239.633,198.011 240.184,198.827C242.384,200.908 244.585,202.989 247.01,205.588C247.312,205.803 247.615,206.017 247.925,206.091Z" style="fill:rgb(250,251,251);fill-rule:nonzero;"/>
    </g>
    <g transform="matrix(0.999023,0,0,0.999023,0.000977,31.542794)">
        <path d="M897.101,705L928.42,705C928.42,705 928.821,715.551 928.821,721.041C955.523,721.041 981.744,721.041 1008.425,721.089C1008.945,731.412 1009.005,741.687 1008.976,752.414C1003.767,752.867 998.647,752.867 993.2,752.867L993.2,769.026L988.121,769.026C846.31,769.012 704.5,769.059 562.69,768.816C555.209,768.803 550.482,773.087 544.973,776.394C539.672,779.576 534.691,783.292 528.967,787.182C528.967,778.726 527.858,770.623 529.215,762.957C531.52,749.938 537.601,738.297 548.702,730.529C553.778,726.978 560.182,725.28 566.054,722.917C575.477,719.124 585.369,721.12 595.019,721.104C693.67,720.938 792.321,721 890.971,720.999L897.024,720.999C897.024,716.092 897.024,710.063 897.101,705Z" style="fill:rgb(220,221,221);fill-rule:nonzero;"/>
    </g>
    <g transform="matrix(0.999023,0,0,0.999023,0.000977,31.542794)">
        <path d="M321.103,705L352.424,705C352.825,709.858 352.825,715.556 352.825,720.705C354.739,720.825 356.179,720.993 357.619,720.994C389.09,721.003 420.566,720.649 452.028,721.187C462.201,721.361 471.512,725.716 479.61,732.316C486.712,738.105 491.116,745.752 494.631,753.854C496.306,757.715 496.708,762.285 496.945,766.575C497.312,773.204 497.042,779.868 497.042,787.136C491.848,783.672 486.915,780.661 482.29,777.235C475.344,772.089 468.434,768.578 459.054,768.746C424.93,769.358 390.789,768.983 356.654,768.981L353.026,768.981C353.026,774.159 353.026,779.617 352.972,785L321.519,785.008C321.047,758.929 321.036,731.481 321.103,705Z" style="fill:rgb(220,221,221);fill-rule:nonzero;"/>
    </g>
    <g transform="matrix(0.999023,0,0,0.999023,0.000977,31.542794)">
        <path d="M993.503,687.2C993.221,682.693 993.09,678.369 993.09,674.045C993.077,462.676 993.075,251.307 993.073,39.938C993.073,37.939 993.086,35.941 993.018,33.48C993.617,33.819 994.631,34.525 994.885,35.443C995.229,36.683 994.999,38.085 994.999,39.418C994.999,254.026 994.999,468.634 994.991,683.242C994.991,684.727 994.904,686.213 994.834,687.698C994.829,687.79 994.562,687.971 994.511,687.943C994.229,687.784 993.977,687.574 993.503,687.2Z" style="fill:rgb(29,29,28);fill-rule:nonzero;"/>
    </g>
    <g transform="matrix(0.999023,0,0,0.999023,0.000977,31.542794)">
        <path d="M497.455,704.879C497.084,612.918 497.078,520.815 497.081,428.711C497.086,312.456 497.099,196.201 497.17,79.483C497.822,80.233 498.783,81.406 498.921,82.67C499.19,85.138 499,87.657 499,90.155C499.001,292.83 499.005,495.505 498.953,698.18C498.953,700.365 498.217,702.551 497.455,704.879Z" style="fill:rgb(29,29,28);fill-rule:nonzero;"/>
    </g>
    <g transform="matrix(0.999023,0,0,0.999023,0.000977,31.542794)">
        <path d="M490.063,15.181C490.948,15.313 491.988,15.752 493.069,16.547C492.146,16.431 491.182,15.96 490.063,15.181Z" style="fill:rgb(26,24,26);fill-rule:nonzero;"/>
    </g>
    <g transform="matrix(0.999023,0,0,0.999023,0.000977,31.542794)">
        <path d="M509.065,32.799C509.729,33.37 510.397,34.31 511.038,35.625C510.363,35.055 509.715,34.112 509.065,32.799Z" style="fill:rgb(26,24,26);fill-rule:nonzero;"/>
    </g>
    <g transform="matrix(0.999023,0,0,0.999023,0.000977,31.542794)">
        <path d="M493.194,17.197C493.392,17.101 493.757,17.262 494.301,17.685C494.107,17.783 493.734,17.619 493.194,17.197Z" style="fill:rgb(26,24,26);fill-rule:nonzero;"/>
    </g>
    <g transform="matrix(0.999023,0,0,0.999023,0.000977,31.542794)">
        <path d="M507.197,30.935C507.399,30.893 507.751,31.165 508.312,31.703C508.13,31.728 507.739,31.489 507.197,30.935Z" style="fill:rgb(26,24,26);fill-rule:nonzero;"/>
    </g>
    <g transform="matrix(0.999023,0,0,0.999023,0.000977,31.542794)">
        <path d="M273.224,599.817C284.065,618.92 289.148,639.071 289.07,660.722C288.876,714.201 289.378,767.685 288.811,821.159C288.543,846.391 279.119,868.762 263.165,888.359C250.553,903.85 234.756,915.116 216.096,921.681C205.71,925.336 194.557,927.053 183.614,928.795C177.121,929.828 176.989,929.086 176.987,922.573C176.98,889.253 176.906,855.932 177.073,822.612C177.095,818.296 176.068,816.661 171.531,816.923C165.056,817.296 158.542,817.016 152.044,817.009C145.032,817.003 145.017,817 145.016,824.287C145.011,857.108 145.018,889.929 145.015,922.749C145.015,929.163 144.793,929.419 138.712,928.939C110.063,926.676 85.14,915.819 65.039,895.267C47.966,877.812 37.299,856.784 34.071,832.345C33.399,827.257 33.045,822.089 33.039,816.958C32.968,762.978 32.823,708.998 33.074,655.019C33.195,628.945 42.276,605.818 58.8,585.795C77.758,562.824 102.256,548.943 131.866,546.182C157.819,543.761 184.085,542.397 209.613,550.01C230.164,556.139 247.651,567.393 261.505,583.889C265.657,588.833 269.194,594.294 273.224,599.817M186.838,584.565C179.19,579.76 170.787,577.279 161.822,577.054C135.566,576.396 113.109,598.38 113.03,624.74C112.966,646.394 112.976,668.049 113.028,689.704C113.087,714.325 134.289,736.183 158.787,736.972C186.398,737.861 208.901,716.218 208.975,688.625C209.029,668.802 208.749,648.976 209.058,629.158C209.348,610.622 202.529,595.85 186.838,584.565Z" style="fill:rgb(102,82,61);fill-rule:nonzero;"/>
    </g>
    <g transform="matrix(0.999023,0,0,0.999023,0.000977,31.542794)">
        <rect x="721.404" y="401.046" width="207.282" height="31.52" style="fill:rgb(44,44,45);"/>
    </g>
    <g transform="matrix(0.999023,0,0,0.999023,0.000977,31.542794)">
        <rect x="721.407" y="113.046" width="207.275" height="31.694" style="fill:rgb(44,44,45);"/>
    </g>
    <g transform="matrix(0.999023,0,0,0.999023,0.000977,31.542794)">
        <rect x="721.252" y="305.046" width="207.406" height="31.668" style="fill:rgb(44,44,45);"/>
    </g>
    <g transform="matrix(0.999023,0,0,0.999023,0.000977,31.542794)">
        <rect x="721.234" y="593.046" width="207.441" height="31.681" style="fill:rgb(44,44,45);"/>
    </g>
    <g transform="matrix(0.999023,0,0,0.999023,0.000977,31.542794)">
        <path d="M784.989,499.27C784.969,509.228 784.969,518.709 784.969,528.595L593.37,528.595L593.37,497.269C594.335,497.184 595.28,497.028 596.225,497.028C657.515,497.026 718.805,497.023 780.095,497.12C781.733,497.122 783.37,498.21 784.989,499.27Z" style="fill:rgb(44,44,45);fill-rule:nonzero;"/>
    </g>
    <g transform="matrix(0.999023,0,0,0.999023,0.000977,31.542794)">
        <rect x="593.341" y="209.272" width="191.415" height="31.713" style="fill:rgb(44,44,45);"/>
    </g>
    <g transform="matrix(0.999023,0,0,0.999023,0.000977,31.542794)">
        <rect x="817.338" y="497.273" width="111.422" height="31.712" style="fill:rgb(44,44,45);"/>
    </g>
    <g transform="matrix(0.999023,0,0,0.999023,0.000977,31.542794)">
        <rect x="817.344" y="209.281" width="111.41" height="31.705" style="fill:rgb(44,44,45);"/>
    </g>
    <g transform="matrix(0.999023,0,0,0.999023,0.000977,31.542794)">
        <rect x="593.405" y="593.046" width="95.279" height="31.689" style="fill:rgb(44,44,45);"/>
    </g>
    <g transform="matrix(0.999023,0,0,0.999023,0.000977,31.542794)">
        <path d="M688.96,423.946C688.959,427.072 688.959,429.707 688.959,432.664L593.296,432.664L593.296,401.412L688.962,401.412C688.962,408.639 688.962,416.046 688.96,423.946Z" style="fill:rgb(44,44,45);fill-rule:nonzero;"/>
    </g>
    <g transform="matrix(0.999023,0,0,0.999023,0.000977,31.542794)">
        <path d="M679.947,336.981L593.335,336.981L593.335,305.271L688.765,305.271L688.765,336.982C685.954,336.982 683.197,336.982 679.947,336.981Z" style="fill:rgb(44,44,45);fill-rule:nonzero;"/>
    </g>
    <g transform="matrix(0.999023,0,0,0.999023,0.000977,31.542794)">
        <path d="M596.23,113.018C627.296,113.03 657.882,113.03 688.737,113.03L688.737,144.605L593.015,144.605C593.015,134.784 592.962,124.873 593.132,114.965C593.143,114.297 594.837,113.658 596.23,113.018Z" style="fill:rgb(44,44,45);fill-rule:nonzero;"/>
    </g>
    <g transform="matrix(0.999023,0,0,0.999023,0.000977,31.542794)">
        <path d="M238.808,197.061C238.477,197.07 238.221,196.937 237.862,196.194C237.395,195.504 237.103,195.282 236.811,195.06C236.48,195.069 236.222,194.937 235.862,194.193C235.394,193.504 235.103,193.282 234.811,193.06C233.234,191.613 231.59,190.23 230.09,188.707C223.456,181.972 223.064,173.552 229.386,166.452C233.254,162.107 237.302,157.811 241.842,154.217C244.566,152.06 248.274,150.715 251.745,150.001C273.538,145.515 295.398,141.358 317.217,136.996C338.537,132.733 359.825,128.311 381.144,124.046C394.167,121.441 407.192,118.825 420.273,116.548C429.851,114.88 439.184,124.078 437.436,133.583C433.743,153.664 429.705,173.682 425.751,193.714C421.476,215.367 417.175,237.015 412.811,258.65C409.66,274.269 407.189,290.088 402.899,305.394C399.826,316.359 390.864,323.543 380.725,328.291C375.803,330.595 370.543,328.919 366.459,325.015C362.976,321.685 359.609,318.234 355.937,314.282C355.387,313.508 355.09,313.287 354.794,313.067C354.466,313.078 354.211,312.947 353.856,312.204C353.388,311.511 353.094,311.288 352.799,311.065C352.47,311.075 352.214,310.943 351.856,310.201C351.385,309.51 351.09,309.288 350.795,309.066C350.466,309.077 350.212,308.945 349.859,308.201C349.394,307.508 349.102,307.285 348.809,307.061C346.956,305.441 345.104,303.82 342.953,301.94C341.936,302.798 340.908,303.544 340.021,304.431C326.605,317.848 313.224,331.299 299.802,344.708C290.435,354.066 281.9,354.126 272.61,344.858C251.283,323.583 229.976,302.288 208.7,280.963C200.048,272.291 200.081,263.557 208.723,254.893C222.355,241.223 235.983,227.547 249.71,213.974C251.547,212.158 252.631,210.791 249.938,208.278C249.404,207.509 249.108,207.291 248.812,207.073C248.812,207.073 248.938,207.066 248.814,206.881C248.388,206.498 248.087,206.301 247.786,206.103C247.786,206.103 247.925,206.091 247.801,205.907C247.38,205.505 247.082,205.287 246.785,205.069C244.585,202.989 242.384,200.908 239.935,198.277C239.393,197.505 239.1,197.283 238.808,197.061M332.925,266.923C332.925,266.923 332.728,266.897 333.259,266.699C333.49,266.411 333.721,266.124 334.387,265.243C336.696,264.504 338.972,263.285 341.322,263.117C347.45,262.681 352.323,265.971 356.497,269.84C362.521,275.425 368.063,281.531 373.979,287.586C375.143,283.378 376.316,280.088 376.931,276.697C377.851,271.619 378.299,266.457 379.1,261.355C379.697,257.55 380.44,253.762 381.287,250.005C382.438,244.895 383.911,239.855 384.943,234.724C385.897,229.984 386.207,225.109 387.24,220.39C388.973,212.468 391.247,204.662 392.921,196.728C393.985,191.685 394.133,186.452 395.141,181.393C396.035,176.903 397.788,172.586 398.725,168.101C399.735,163.261 400.237,158.315 401.114,152.379C397.651,153.367 394.966,154.353 392.194,154.883C384.379,156.376 376.521,157.646 368.693,159.075C365.025,159.745 361.387,160.579 357.735,161.337C351.87,162.554 346.022,163.858 340.136,164.956C335.513,165.819 330.793,166.198 326.202,167.193C314.876,169.646 303.631,172.478 292.292,174.87C283.96,176.628 275.532,177.932 267.137,179.44C274.466,187.71 281.688,195.788 288.822,203.943C291.89,207.451 291.853,213.985 288.243,218.192C287.861,219.235 287.478,220.277 286.858,221.925C272.262,236.582 257.644,251.217 243.128,265.952C242.348,266.744 242.418,268.372 242.431,270.198C242.805,270.447 243.179,270.695 244.117,271.213C257.107,284.321 270.097,297.43 283.379,311.122C283.719,311.384 284.058,311.646 284.931,312.247C286.062,311.752 287.462,311.53 288.285,310.721C302.769,296.488 317.183,282.184 332.179,267.666C332.43,267.352 332.681,267.038 332.925,266.923Z" style="fill:rgb(45,45,46);fill-rule:nonzero;"/>
    </g>
    <g transform="matrix(0.999023,0,0,0.999023,0.000977,31.542794)">
        <path d="M247.895,206.357C248.087,206.301 248.388,206.498 248.809,206.944C248.621,206.998 248.313,206.805 247.895,206.357Z" style="fill:rgb(26,24,26);fill-rule:nonzero;"/>
    </g>
    <g transform="matrix(0.999023,0,0,0.999023,0.000977,31.542794)">
        <path d="M234.921,193.321C235.103,193.282 235.394,193.504 235.811,193.974C235.635,194.008 235.333,193.795 234.921,193.321Z" style="fill:rgb(26,24,26);fill-rule:nonzero;"/>
    </g>
    <g transform="matrix(0.999023,0,0,0.999023,0.000977,31.542794)">
        <path d="M236.921,195.321C237.103,195.282 237.395,195.504 237.811,195.974C237.634,196.009 237.332,195.795 236.921,195.321Z" style="fill:rgb(26,24,26);fill-rule:nonzero;"/>
    </g>
    <g transform="matrix(0.999023,0,0,0.999023,0.000977,31.542794)">
        <path d="M238.919,197.321C239.1,197.283 239.393,197.505 239.81,197.976C239.633,198.011 239.332,197.796 238.919,197.321Z" style="fill:rgb(26,24,26);fill-rule:nonzero;"/>
    </g>
    <g transform="matrix(0.999023,0,0,0.999023,0.000977,31.542794)">
        <path d="M246.897,205.329C247.082,205.287 247.38,205.505 247.797,205.977C247.615,206.017 247.312,205.803 246.897,205.329Z" style="fill:rgb(26,24,26);fill-rule:nonzero;"/>
    </g>
    <g transform="matrix(0.999023,0,0,0.999023,0.000977,31.542794)">
        <path d="M354.907,313.328C355.09,313.287 355.387,313.508 355.808,313.98C355.628,314.017 355.324,313.803 354.907,313.328Z" style="fill:rgb(26,24,26);fill-rule:nonzero;"/>
    </g>
    <g transform="matrix(0.999023,0,0,0.999023,0.000977,31.542794)">
        <path d="M248.919,207.336C249.108,207.291 249.404,207.509 249.814,207.983C249.628,208.026 249.327,207.812 248.919,207.336Z" style="fill:rgb(26,24,26);fill-rule:nonzero;"/>
    </g>
    <g transform="matrix(0.999023,0,0,0.999023,0.000977,31.542794)">
        <path d="M348.918,307.323C349.102,307.285 349.394,307.508 349.809,307.983C349.631,308.018 349.329,307.801 348.918,307.323Z" style="fill:rgb(26,24,26);fill-rule:nonzero;"/>
    </g>
    <g transform="matrix(0.999023,0,0,0.999023,0.000977,31.542794)">
        <path d="M350.906,309.327C351.09,309.288 351.385,309.51 351.806,309.982C351.627,310.019 351.322,309.804 350.906,309.327Z" style="fill:rgb(26,24,26);fill-rule:nonzero;"/>
    </g>
    <g transform="matrix(0.999023,0,0,0.999023,0.000977,31.542794)">
        <path d="M352.912,311.326C353.094,311.288 353.388,311.511 353.807,311.986C353.629,312.021 353.327,311.804 352.912,311.326Z" style="fill:rgb(26,24,26);fill-rule:nonzero;"/>
    </g>
    <g transform="matrix(0.999023,0,0,0.999023,0.000977,31.542794)">
        <path d="M187.126,584.785C202.529,595.85 209.348,610.622 209.058,629.158C208.749,648.976 209.029,668.802 208.975,688.625C208.901,716.218 186.398,737.861 158.787,736.972C134.289,736.183 113.087,714.325 113.028,689.704C112.976,668.049 112.966,646.394 113.03,624.74C113.109,598.38 135.566,576.396 161.822,577.054C170.787,577.279 179.19,579.76 187.126,584.785M161.413,608.956C151.512,609.296 145.01,615.902 144.992,625.773C144.955,646.415 144.976,667.057 144.967,687.698C144.963,697.822 151.549,705.013 160.899,705.074C170.14,705.134 177.008,697.852 177.022,687.887C177.052,667.245 177.051,646.603 177.047,625.961C177.044,616.579 171.8,610.572 161.413,608.956Z" style="fill:rgb(45,45,45);fill-rule:nonzero;"/>
    </g>
    <g transform="matrix(0.999023,0,0,0.999023,0.000977,31.542794)">
        <path d="M242.093,269.611C242.418,268.372 242.348,266.744 243.128,265.952C257.644,251.217 272.262,236.582 287.273,221.463C288.104,220.003 288.521,219.007 288.938,218.01C291.853,213.985 291.89,207.451 288.822,203.943C281.688,195.788 274.466,187.71 267.137,179.44C275.532,177.932 283.96,176.628 292.292,174.87C303.631,172.478 314.876,169.646 326.202,167.193C330.793,166.198 335.513,165.819 340.136,164.956C346.022,163.858 351.87,162.554 357.735,161.337C361.387,160.579 365.025,159.745 368.693,159.075C376.521,157.646 384.379,156.376 392.194,154.883C394.966,154.353 397.651,153.367 401.114,152.379C400.237,158.315 399.735,163.261 398.725,168.101C397.788,172.586 396.035,176.903 395.141,181.393C394.133,186.452 393.985,191.685 392.921,196.728C391.247,204.662 388.973,212.468 387.24,220.39C386.207,225.109 385.897,229.984 384.943,234.724C383.911,239.855 382.438,244.895 381.287,250.005C380.44,253.762 379.697,257.55 379.1,261.355C378.299,266.457 377.851,271.619 376.931,276.697C376.316,280.088 375.143,283.378 373.979,287.586C368.063,281.531 362.521,275.425 356.497,269.84C352.323,265.971 347.45,262.681 341.322,263.117C338.972,263.285 336.696,264.504 333.895,265.622C333.179,266.3 332.953,266.598 332.728,266.897C332.728,266.897 332.925,266.923 332.644,266.94C332.113,267.271 331.862,267.583 331.612,267.896C317.183,282.184 302.769,296.488 288.285,310.721C287.462,311.53 286.062,311.752 284.509,311.795C283.754,311.074 283.42,310.807 283.087,310.539C270.097,297.43 257.107,284.321 243.649,270.796C242.818,270.123 242.456,269.867 242.093,269.611Z" style="fill:rgb(220,220,221);fill-rule:nonzero;"/>
    </g>
    <g transform="matrix(0.999023,0,0,0.999023,0.000977,31.542794)">
        <path d="M288.591,218.101C288.521,219.007 288.104,220.003 287.391,221.16C287.478,220.277 287.861,219.235 288.591,218.101Z" style="fill:rgb(26,24,26);fill-rule:nonzero;"/>
    </g>
    <g transform="matrix(0.999023,0,0,0.999023,0.000977,31.542794)">
        <path d="M332.994,266.798C332.953,266.598 333.179,266.3 333.678,265.918C333.721,266.124 333.49,266.411 332.994,266.798Z" style="fill:rgb(26,24,26);fill-rule:nonzero;"/>
    </g>
    <g transform="matrix(0.999023,0,0,0.999023,0.000977,31.542794)">
        <path d="M331.895,267.781C331.862,267.583 332.113,267.271 332.648,266.841C332.681,267.038 332.43,267.352 331.895,267.781Z" style="fill:rgb(26,24,26);fill-rule:nonzero;"/>
    </g>
    <g transform="matrix(0.999023,0,0,0.999023,0.000977,31.542794)">
        <path d="M242.262,269.905C242.456,269.867 242.818,270.123 243.367,270.661C243.179,270.695 242.805,270.447 242.262,269.905Z" style="fill:rgb(26,24,26);fill-rule:nonzero;"/>
    </g>
    <g transform="matrix(0.999023,0,0,0.999023,0.000977,31.542794)">
        <path d="M283.233,310.83C283.42,310.807 283.754,311.074 284.242,311.625C284.058,311.646 283.719,311.384 283.233,310.83Z" style="fill:rgb(26,24,26);fill-rule:nonzero;"/>
    </g>
    <g transform="matrix(0.999023,0,0,0.999023,0.000977,31.542794)">
        <path d="M161.838,608.962C171.8,610.572 177.044,616.579 177.047,625.961C177.051,646.603 177.052,667.245 177.022,687.887C177.008,697.852 170.14,705.134 160.899,705.074C151.549,705.013 144.963,697.822 144.967,687.698C144.976,667.057 144.955,646.415 144.992,625.773C145.01,615.902 151.512,609.296 161.838,608.962Z" style="fill:rgb(220,220,221);fill-rule:nonzero;"/>
    </g>
</svg>
