<?xml version="1.0" encoding="UTF-8" standalone="no"?>
<!DOCTYPE svg PUBLIC "-//W3C//DTD SVG 1.1//EN" "http://www.w3.org/Graphics/SVG/1.1/DTD/svg11.dtd">
<svg width="100%" height="100%" viewBox="0 0 100 124" version="1.1" xmlns="http://www.w3.org/2000/svg" xmlns:xlink="http://www.w3.org/1999/xlink" xml:space="preserve" xmlns:serif="http://www.serif.com/" style="fill-rule:evenodd;clip-rule:evenodd;stroke-linejoin:round;stroke-miterlimit:2;">
    <g id="Main" transform="matrix(0.1,0,0,-0.1,-462,574)">
        <g id="Secciones--Traducción" serif:id="Secciones, Traducción" transform="matrix(0.125142,-0,0,0.125142,4522.021252,4301.345318)">
            <g transform="matrix(0,15.623538,345.403988,-0,-72053.677422,-4909.474052)">
                <rect x="545.424" y="211.588" width="19.325" height="22.298"/>
            </g>
            <g transform="matrix(15.544927,-0,0,-252.20089,-47.498948,62749.190002)">
                <rect x="545.424" y="211.588" width="19.325" height="22.298"/>
            </g>
            <g transform="matrix(15.544927,-0,0,-262.916618,-7629.139986,65104.489856)">
                <rect x="545.424" y="211.588" width="19.325" height="22.298"/>
            </g>
            <g transform="matrix(0,15.623538,349.989108,-0,-73126.072667,651.009457)">
                <rect x="545.424" y="211.588" width="19.325" height="22.298"/>
            </g>
            <g transform="matrix(147.951249,0,0,-147.951249,2558.9734,8698.859859)">
                <path d="M5,3C3.907,3 3,3.907 3,5L3,16C3,17.093 3.907,18 5,18L12,18L12,22L8,22L8,19L7,18L6,19L6,22L8,24L12,24L12,25C12,26.105 12.895,27 14,27L25,27C26.105,27 27,26.105 27,25L27,14C27,12.895 26.105,12 25,12L18,12L18,5C18,3.907 17.093,3 16,3L5,3ZM5,5L16,5L16,12L14,12C12.895,12 12,12.895 12,14L12,16L5,16L5,5ZM12,14L12,13C11.755,13 11.521,12.97 11.291,12.934C11.315,12.916 11.342,12.903 11.365,12.885C12.436,12.071 13,10.751 13,9L14,9L14,8L11,8L11,6.5L10,6.5L10,8L7,8L7,9L12,9C12,10.549 11.564,11.479 10.76,12.09C10.54,12.257 10.278,12.397 9.99,12.518C9.667,12.358 9.364,12.177 9.109,11.963C8.392,11.36 8,10.592 8,10L7,10C7,10.997 7.574,11.979 8.465,12.729C8.524,12.778 8.596,12.818 8.658,12.865C8.157,12.945 7.617,13 7,13L7,14C8.115,14 9.108,13.885 9.957,13.605C10.576,13.85 11.262,14 12,14ZM18.402,15.977L20.594,15.977L22.963,23.023L21.01,23.023L20.57,21.475L18.27,21.475L17.816,23.023L16.039,23.023L18.402,15.977ZM19.383,17.564L18.611,20.186L20.232,20.186L19.477,17.564L19.383,17.564Z" style="fill-rule:nonzero;"/>
            </g>
        </g>
    </g>
</svg>
