<?xml version="1.0" encoding="UTF-8" standalone="no"?>
<!DOCTYPE svg PUBLIC "-//W3C//DTD SVG 1.1//EN" "http://www.w3.org/Graphics/SVG/1.1/DTD/svg11.dtd">
<svg width="100%" height="100%" viewBox="0 0 100 124" version="1.1" xmlns="http://www.w3.org/2000/svg" xmlns:xlink="http://www.w3.org/1999/xlink" xml:space="preserve" xmlns:serif="http://www.serif.com/" style="fill-rule:evenodd;clip-rule:evenodd;stroke-linejoin:round;stroke-miterlimit:2;">
    <g id="Main" transform="matrix(0.1,0,0,-0.1,-462,574)">
        <g id="TouTube--Ficha-técnica" serif:id="TouTube, Ficha técnica" transform="matrix(0.125142,-0,0,0.125142,4522.021252,4301.345318)">
            <g transform="matrix(11.072878,-0,0,-12.892032,-1010.865433,11005.637644)">
                <rect x="372.989" y="128.344" width="28.243" height="401.356" style="fill-opacity:0;"/>
            </g>
            <g transform="matrix(11.072878,-0,0,-12.892032,-1010.865433,11005.637644)">
                <rect x="545.424" y="211.588" width="38.649" height="148.65" style="fill-opacity:0;"/>
            </g>
            <g transform="matrix(11.072878,-0,0,-12.892032,-1010.865433,11005.637644)">
                <rect x="372.989" y="329.022" width="99.596" height="107.028" style="fill-opacity:0;"/>
            </g>
            <g transform="matrix(0,15.623538,345.403988,-0,-72053.677422,-4909.474052)">
                <rect x="545.424" y="211.588" width="19.325" height="22.298"/>
            </g>
            <g transform="matrix(0,23.994241,255.729246,-0,-52130.89489,-6773.525458)">
                <rect x="545.424" y="211.588" width="19.325" height="22.298"/>
            </g>
            <g transform="matrix(0,23.994241,255.729246,-0,-52130.89489,-8055.090183)">
                <rect x="545.424" y="211.588" width="19.325" height="22.298"/>
            </g>
            <g transform="matrix(0,23.994241,255.729246,-0,-52130.89489,-5499.036413)">
                <rect x="545.424" y="211.588" width="19.325" height="22.298"/>
            </g>
            <g transform="matrix(15.544927,-0,0,-252.20089,-47.498948,62749.190002)">
                <rect x="545.424" y="211.588" width="19.325" height="22.298"/>
            </g>
            <g transform="matrix(15.544927,-0,0,-262.916618,-7629.139986,65104.489856)">
                <rect x="545.424" y="211.588" width="19.325" height="22.298"/>
            </g>
        </g>
        <g id="Secciones" transform="matrix(0.125142,-0,0,0.125142,4522.021252,4301.345318)">
            <g transform="matrix(11.072878,-0,0,-12.892032,-1010.865433,11005.637644)">
                <rect x="372.989" y="128.344" width="28.243" height="401.356" style="fill-opacity:0;"/>
            </g>
            <g transform="matrix(11.072878,-0,0,-12.892032,-1010.865433,11005.637644)">
                <rect x="545.424" y="211.588" width="38.649" height="148.65" style="fill-opacity:0;"/>
            </g>
            <g transform="matrix(11.072878,-0,0,-12.892032,-1010.865433,11005.637644)">
                <rect x="372.989" y="329.022" width="99.596" height="107.028" style="fill-opacity:0;"/>
            </g>
            <g transform="matrix(0,15.623538,345.403988,-0,-72053.677422,-4909.474052)">
                <rect x="545.424" y="211.588" width="19.325" height="22.298"/>
            </g>
            <g transform="matrix(0,15.623538,349.989108,-0,-73126.072667,651.009457)">
                <rect x="545.424" y="211.588" width="19.325" height="22.298"/>
            </g>
            <g transform="matrix(15.544927,-0,0,-252.20089,-47.498948,62749.190002)">
                <rect x="545.424" y="211.588" width="19.325" height="22.298"/>
            </g>
        </g>
    </g>
</svg>
