<?xml version="1.0" standalone="no"?>
<!DOCTYPE svg PUBLIC "-//W3C//DTD SVG 20010904//EN"
 "http://www.w3.org/TR/2001/REC-SVG-20010904/DTD/svg10.dtd">
<svg version="1.0" xmlns="http://www.w3.org/2000/svg"
 width="512.000000pt" height="512.000000pt" viewBox="0 0 512.000000 512.000000"
 preserveAspectRatio="xMidYMid meet">

<g transform="translate(0.000000,512.000000) scale(0.100000,-0.100000)"
fill="#000000" stroke="none">
<path d="M2329 4840 c-158 -39 -284 -114 -407 -245 -304 -320 -294 -825 22
-1141 307 -306 784 -326 1121 -47 116 96 224 269 266 429 29 111 29 288 0 399
-81 304 -305 528 -605 605 -105 27 -288 27 -397 0z"/>
<path d="M670 1896 c-168 -36 -306 -110 -426 -231 -316 -315 -325 -820 -22
-1140 173 -183 361 -265 609 -265 383 0 700 247 800 625 29 111 29 288 0 400
-76 288 -296 514 -581 595 -96 28 -286 35 -380 16z"/>
<path d="M4125 1895 c-178 -40 -338 -131 -445 -252 -295 -334 -289 -811 13
-1129 162 -172 364 -257 602 -257 228 1 415 78 578 240 319 317 329 819 23
1150 -116 125 -273 213 -438 247 -92 19 -250 20 -333 1z"/>
</g>
</svg>
