<?xml version="1.0" encoding="UTF-8"?>
<svg version="1.1" xmlns="http://www.w3.org/2000/svg" width="255" height="255">
<path d="M0 0 C1.74609375 1.2265625 1.74609375 1.2265625 3 3 C3.328125 5.84765625 3.328125 5.84765625 3.25 9.0625 C3.23453125 10.12597656 3.2190625 11.18945312 3.203125 12.28515625 C3 15 3 15 2 17 C-1.15820583 16.50653034 -3.60774208 15.73344646 -6.5625 14.4375 C-11.80583445 12.40620822 -17.46269777 12.16325211 -23 13 C-24.91460972 14.17951974 -24.91460972 14.17951974 -26 16 C-26.2503577 19.62535976 -26.2503577 19.62535976 -26 23 C-25.35933594 23.25136719 -24.71867187 23.50273438 -24.05859375 23.76171875 C-20.03523734 25.39058718 -16.04492301 27.08624153 -12.0625 28.8125 C-10.88397461 29.3084668 -10.88397461 29.3084668 -9.68164062 29.81445312 C-2.65933109 32.87606255 3.05866443 36.41400624 6.3046875 43.62890625 C8.10697179 49.77489817 8.04548575 56.48162961 5.4375 62.375 C1.42083545 69.09733443 -4.34628698 72.8924227 -11.71484375 75.3046875 C-22.24778867 77.53401472 -34.39085423 77.24135224 -44 72 C-46.45432997 69.62518396 -46.96014462 68.41024474 -47.29296875 64.984375 C-47.25816406 63.91703125 -47.22335938 62.8496875 -47.1875 61.75 C-47.14689453 60.13351563 -47.14689453 60.13351563 -47.10546875 58.484375 C-47.07066406 57.66453125 -47.03585938 56.8446875 -47 56 C-42.45199457 54.59348721 -40.02531922 55.53219469 -35.75 57.4375 C-29.02472537 60.17629962 -23.90027583 61.27355945 -16.9375 59 C-16.298125 58.67 -15.65875 58.34 -15 58 C-14.14612895 54.69432511 -14.14612895 54.69432511 -14 51 C-17.12015405 46.69633924 -21.39192472 45.4937508 -26.1875 43.75 C-34.00343466 40.69692644 -40.84986428 37.41304966 -45.234375 29.87890625 C-47.87726397 23.3760084 -47.66163729 16.2004479 -45.08984375 9.69921875 C-41.57441692 3.37145045 -36.46130999 0.17858226 -29.73046875 -2.11328125 C-20.42711962 -4.32465324 -8.73532496 -4.32318526 0 0 Z " fill="#0F0F0F" transform="translate(148,98)"/>
<path d="M0 0 C1.40603618 2.81207235 1.24557505 5.24009466 1.3125 8.375 C1.36857422 10.08816406 1.36857422 10.08816406 1.42578125 11.8359375 C0.89928367 15.74844247 -0.03922692 16.47879879 -3 19 C-5.72631836 20.55224609 -5.72631836 20.55224609 -8.83984375 22.0234375 C-9.98646484 22.57 -11.13308594 23.1165625 -12.31445312 23.6796875 C-13.52206363 24.24494506 -14.72974615 24.8100488 -15.9375 25.375 C-17.09830078 25.92671875 -18.25910156 26.4784375 -19.45507812 27.046875 C-22.96421893 28.71064126 -26.48125628 30.35665474 -30 32 C-31.23594855 32.58342862 -32.47178831 33.16708777 -33.70751953 33.75097656 C-34.87782715 34.29979492 -36.04813477 34.84861328 -37.25390625 35.4140625 C-38.31037354 35.91115723 -39.36684082 36.40825195 -40.45532227 36.92041016 C-43 38 -43 38 -45 38 C-45 38.66 -45 39.32 -45 40 C-44.4455722 40.17418961 -43.89114441 40.34837921 -43.31991577 40.52784729 C-37.96760937 42.25387352 -32.87977873 44.26961785 -27.7890625 46.65234375 C-26.68683853 47.16445152 -26.68683853 47.16445152 -25.56234741 47.68690491 C-24.02681823 48.40279779 -22.49253335 49.12136536 -20.95947266 49.8425293 C-18.61484173 50.94226468 -16.26282853 52.02501651 -13.91015625 53.10742188 C-12.41097962 53.8088736 -10.91226451 54.51131276 -9.4140625 55.21484375 C-8.71407135 55.53476791 -8.0140802 55.85469208 -7.2928772 56.18431091 C-3.6271153 57.93071195 -0.9589398 59.36578212 1 63 C1.328125 66.1640625 1.328125 66.1640625 1.25 69.625 C1.23453125 70.77226562 1.2190625 71.91953125 1.203125 73.1015625 C1 76 1 76 0 78 C-4.83852735 77.43788169 -8.4522918 76.00238154 -12.77734375 73.7890625 C-13.41746399 73.46491867 -14.05758423 73.14077484 -14.71710205 72.80680847 C-16.7943444 71.75345008 -18.86589346 70.68939289 -20.9375 69.625 C-23.8157487 68.15888784 -26.6966928 66.69812499 -29.578125 65.23828125 C-30.29401291 64.87476059 -31.00990082 64.51123993 -31.7474823 64.13670349 C-39.08252858 60.42503678 -46.51356667 56.92372658 -54.00561523 53.53955078 C-58.78853788 51.31809004 -62.79096398 49.34814617 -66 45 C-66.6640625 41.80859375 -66.6640625 41.80859375 -66.625 38.4375 C-66.63789062 37.32246094 -66.65078125 36.20742187 -66.6640625 35.05859375 C-65.79234183 31.0435509 -64.30371706 30.34863545 -61 28 C-59.15207341 26.94074597 -57.2728961 25.93475204 -55.37109375 24.97558594 C-53.71412476 24.13516754 -53.71412476 24.13516754 -52.02368164 23.277771 C-50.82850057 22.67954697 -49.63310132 22.08175868 -48.4375 21.484375 C-47.20097357 20.86255749 -45.96456595 20.24050367 -44.72827148 19.6182251 C-42.1447964 18.31978551 -39.5590146 17.02608144 -36.97167969 15.73535156 C-33.66086236 14.08289808 -30.35759703 12.41592445 -27.05607605 10.7449913 C-24.50816644 9.45810211 -21.95571684 8.18043399 -19.40188599 6.9053421 C-18.18191161 6.29450986 -16.96352294 5.68049962 -15.74679565 5.06322479 C-14.04563278 4.201552 -12.33739746 3.35388547 -10.62890625 2.50683594 C-9.66025635 2.02148376 -8.69160645 1.53613159 -7.69360352 1.03607178 C-4.91066882 -0.03436048 -2.95149874 -0.21526586 0 0 Z " fill="#101010" transform="translate(87,88)"/>
<path d="M0 0 C5.56125971 0.38794467 9.87638607 2.68733779 14.73828125 5.19140625 C15.57731491 5.61493881 16.41634857 6.03847137 17.2808075 6.47483826 C19.96193969 7.82985009 22.63740859 9.19560679 25.3125 10.5625 C28.80679601 12.3381946 32.30356993 14.10896188 35.80078125 15.87890625 C36.65495636 16.31296783 37.50913147 16.74702942 38.38919067 17.19424438 C44.77173677 20.42342791 51.21629845 23.4987487 57.74446106 26.42298889 C64.06033385 29.3099391 64.06033385 29.3099391 66 32 C66.46875 35.21484375 66.46875 35.21484375 66.5 38.9375 C66.5309375 40.16339844 66.561875 41.38929688 66.59375 42.65234375 C66 46 66 46 63.92358398 47.9765625 C60.63611447 50.25184829 57.23262413 52.02121956 53.62890625 53.72265625 C52.91786743 54.06502319 52.20682861 54.40739014 51.47424316 54.76013184 C49.17311914 55.86684802 46.86793542 56.96479738 44.5625 58.0625 C41.39454515 59.58065599 38.22846961 61.10270917 35.0625 62.625 C34.28205826 62.99951797 33.50161652 63.37403595 32.69752502 63.75990295 C25.20090386 67.365265 17.77501841 71.10539091 10.39868164 74.95141602 C9.59809326 75.36061279 8.79750488 75.76980957 7.97265625 76.19140625 C7.29468994 76.54404541 6.61672363 76.89668457 5.91821289 77.26000977 C4 78 4 78 0 78 C-1.40783127 75.18433745 -1.2076814 72.7636293 -1.25 69.625 C-1.27578125 68.48289062 -1.3015625 67.34078125 -1.328125 66.1640625 C-0.95501039 62.56617158 -0.42452094 61.6066956 2 59 C4.70458984 57.44775391 4.70458984 57.44775391 7.9609375 55.9765625 C9.15589844 55.43 10.35085937 54.8834375 11.58203125 54.3203125 C12.84621702 53.75490158 14.11054047 53.18979842 15.375 52.625 C16.60071598 52.06871102 17.82598102 51.51142732 19.05078125 50.953125 C21.48384027 49.84534665 23.92001269 48.74554517 26.35839844 47.64941406 C28.82841246 46.53065469 31.28924731 45.40172045 33.74316406 44.24902344 C34.91331055 43.70020508 36.08345703 43.15138672 37.2890625 42.5859375 C38.3404541 42.08884277 39.3918457 41.59174805 40.47509766 41.07958984 C43 40 43 40 45 40 C45 39.34 45 38.68 45 38 C44.4455722 37.82581039 43.89114441 37.65162079 43.31991577 37.47215271 C37.96760937 35.74612648 32.87977873 33.73038215 27.7890625 31.34765625 C27.05424652 31.00625107 26.31943054 30.66484589 25.56234741 30.31309509 C24.02681823 29.59720221 22.49253335 28.87863464 20.95947266 28.1574707 C18.61484173 27.05773532 16.26282853 25.97498349 13.91015625 24.89257812 C12.41097962 24.1911264 10.91226451 23.48868724 9.4140625 22.78515625 C8.36407578 22.30527 8.36407578 22.30527 7.2928772 21.81568909 C3.62851552 20.06995512 0.94669352 18.64072151 -1 15 C-1.328125 11.58203125 -1.328125 11.58203125 -1.25 7.8125 C-1.22679687 5.93498047 -1.22679687 5.93498047 -1.203125 4.01953125 C-1 1 -1 1 0 0 Z " fill="#0F0F0F" transform="translate(168,88)"/>
</svg>
